<?xml version="1.0" standalone="no"?><!DOCTYPE svg PUBLIC "-//W3C//DTD SVG 1.1//EN" "http://www.w3.org/Graphics/SVG/1.1/DTD/svg11.dtd"><svg t="1669816161145" class="icon" viewBox="0 0 1024 1024" version="1.1" xmlns="http://www.w3.org/2000/svg" p-id="7428" xmlns:xlink="http://www.w3.org/1999/xlink" width="128" height="128"><path d="M891.733333 170.666667H132.266667C93.866667 170.666667 64 200.533333 64 238.933333V341.333333h896v-102.4C960 200.533333 930.133333 170.666667 891.733333 170.666667zM891.733333 874.666667c38.4 0 68.266667-29.866667 68.266667-68.266667V426.666667H64v379.733333C64 844.8 93.866667 874.666667 132.266667 874.666667h759.466666zM192 554.666667h253.866667c19.2 0 32 12.8 32 32s-12.8 32-32 32H187.733333c-17.066667-2.133333-27.733333-14.933333-27.733333-32 0-19.2 12.8-32 32-32z m0 128h128c19.2 0 32 12.8 32 32S339.2 746.666667 320 746.666667H187.733333c-17.066667-2.133333-27.733333-14.933333-27.733333-32 0-19.2 12.8-32 32-32z" p-id="7429" fill="#2c2c2c"></path></svg>