<?xml version="1.0" standalone="no"?><!DOCTYPE svg PUBLIC "-//W3C//DTD SVG 1.1//EN" "http://www.w3.org/Graphics/SVG/1.1/DTD/svg11.dtd"><svg t="1670262796852" class="icon" viewBox="0 0 1024 1024" version="1.1" xmlns="http://www.w3.org/2000/svg" p-id="2444" xmlns:xlink="http://www.w3.org/1999/xlink" width="128" height="128"><path d="M768 853.333333a42.666667 42.666667 0 1 1 0 85.333334 42.666667 42.666667 0 0 1 0-85.333334z m42.666667-384c70.570667 0 128 57.429333 128 128s-57.429333 128-128 128v42.666667a42.666667 42.666667 0 0 1-85.333334 0v-85.333333a42.666667 42.666667 0 0 1 42.666667-42.666667h42.666667c23.509333 0 42.666667-19.157333 42.666666-42.666667 0-23.509333-19.157333-42.666667-42.666666-42.666666h-42.666667c-23.509333 0-42.666667 19.157333-42.666667 42.666666a42.666667 42.666667 0 0 1-85.333333 0c0-70.570667 57.429333-128 128-128h42.666667z m-199.253334-54.101333c-0.597333-0.554667-1.322667-0.938667-1.877333-1.536a42.069333 42.069333 0 0 1-7.68-10.666667c-0.213333-0.341333-0.170667-0.853333-0.341333-1.28-1.194667-2.474667-1.536-5.290667-2.218667-8.021333-0.64-2.858667-1.621333-5.589333-1.706667-8.448 0-0.426667-0.256-0.853333-0.256-1.28V230.997333l-55.168 55.168A42.496 42.496 0 0 1 512 298.666667H341.333333a42.666667 42.666667 0 0 1-30.165333-12.501334L256 230.997333V725.333333h298.666667a42.666667 42.666667 0 1 1 0 85.333334H213.333333a42.666667 42.666667 0 0 1-42.666666-42.666667v-314.965333l-23.552 11.818666a42.581333 42.581333 0 0 1-57.258667-19.114666 42.666667 42.666667 0 0 1 19.072-57.216L117.888 384l-8.96-4.48a42.666667 42.666667 0 0 1 38.186667-76.373333L170.666667 315.008V128a42.709333 42.709333 0 0 1 72.832-30.165333L358.997333 213.333333h135.338667l115.498667-115.498666A42.666667 42.666667 0 0 1 682.666667 128v186.965333l23.594666-11.776a42.666667 42.666667 0 0 1 38.186667 76.330667l-85.333333 42.666667c-0.554667 0.256-1.152 0.341333-1.706667 0.597333-0.768 0.341333-1.536 0.554667-2.389333 0.853333a42.069333 42.069333 0 0 1-14.976 2.986667h-0.128a43.818667 43.818667 0 0 1-18.346667-4.522667 41.984 41.984 0 0 1-10.154667-6.869333zM341.333333 341.333333a42.666667 42.666667 0 1 1 0 85.333334 42.666667 42.666667 0 0 1 0-85.333334z m128 42.666667a42.666667 42.666667 0 1 1 85.333334 0 42.666667 42.666667 0 0 1-85.333334 0z m-42.666666 128a42.666667 42.666667 0 1 1 0-85.333333 42.666667 42.666667 0 0 1 0 85.333333z" fill="#62C6AC" p-id="2445"></path></svg>