<?xml version="1.0" standalone="no"?><!DOCTYPE svg PUBLIC "-//W3C//DTD SVG 1.1//EN" "http://www.w3.org/Graphics/SVG/1.1/DTD/svg11.dtd"><svg t="1670294792670" class="icon" viewBox="0 0 1024 1024" version="1.1" xmlns="http://www.w3.org/2000/svg" p-id="7118" xmlns:xlink="http://www.w3.org/1999/xlink" width="128" height="128"><path d="M904.362667 683.52a42.666667 42.666667 0 1 1-16.725334 83.626667l-84.266666-16.853334-133.205334 133.205334A42.538667 42.538667 0 0 1 640 896H384a42.666667 42.666667 0 0 1-30.165333-12.501333L220.586667 750.293333l-84.266667 16.853334a42.666667 42.666667 0 0 1-16.725333-83.626667L170.666667 673.28v-106.624l-53.034667-13.269333a42.666667 42.666667 0 0 1 20.736-82.773334l32.298667 8.064v-90.453333l-41.813334-209.194667a42.666667 42.666667 0 0 1 63.786667-44.928L395.818667 256h232.362666l203.178667-121.898667a42.752 42.752 0 0 1 63.829333 44.928L853.333333 388.224v90.453333l32.298667-8.064a42.666667 42.666667 0 0 1 20.736 82.773334L853.333333 566.656v106.624l51.029334 10.24zM622.336 810.666667l80.469333-80.469334-28.501333-5.717333a42.581333 42.581333 0 1 1 16.725333-83.626667l76.970667 15.36v-68.224l-32.298667 8.064a42.666667 42.666667 0 0 1-20.736-82.773333L768 500.010667V384c0-2.816 0.256-5.589333 0.853333-8.362667l23.722667-118.741333-130.602667 78.336A42.538667 42.538667 0 0 1 640 341.333333H384a42.538667 42.538667 0 0 1-21.973333-6.101333L231.424 256.896l23.765333 118.741333c0.554667 2.773333 0.810667 5.546667 0.810667 8.362667v116.010667l53.034667 13.269333a42.666667 42.666667 0 0 1-20.736 82.773333L256 587.989333v68.224l76.970667-15.36a42.624 42.624 0 1 1 16.725333 83.626667l-28.501333 5.717333L401.664 810.666667h220.672zM554.666667 554.666667a42.666667 42.666667 0 0 1 0 85.333333h-85.333334a42.666667 42.666667 0 0 1 0-85.333333h85.333334z m-85.333334-85.333334a42.666667 42.666667 0 1 1-85.333333 0 42.666667 42.666667 0 0 1 85.333333 0z m128-42.666666a42.666667 42.666667 0 1 1 0 85.333333 42.666667 42.666667 0 0 1 0-85.333333z" fill="#62C6AC" p-id="7119"></path></svg>