<?xml version="1.0" standalone="no"?><!DOCTYPE svg PUBLIC "-//W3C//DTD SVG 1.1//EN" "http://www.w3.org/Graphics/SVG/1.1/DTD/svg11.dtd"><svg t="1670262749724" class="icon" viewBox="0 0 1024 1024" version="1.1" xmlns="http://www.w3.org/2000/svg" p-id="2193" xmlns:xlink="http://www.w3.org/1999/xlink" width="128" height="128"><path d="M341.333333 426.666667a42.666667 42.666667 0 1 1-85.333333 0 42.666667 42.666667 0 0 1 85.333333 0z m170.666667 0a42.666667 42.666667 0 1 1-85.333333 0 42.666667 42.666667 0 0 1 85.333333 0z m256 426.666666a42.666667 42.666667 0 1 1 0 85.333334 42.666667 42.666667 0 0 1 0-85.333334z m42.666667-384c70.570667 0 128 57.429333 128 128s-57.429333 128-128 128v42.666667a42.666667 42.666667 0 0 1-85.333334 0v-85.333333a42.666667 42.666667 0 0 1 42.666667-42.666667h42.666667c23.509333 0 42.666667-19.157333 42.666666-42.666667 0-23.509333-19.157333-42.666667-42.666666-42.666666h-42.666667c-23.509333 0-42.666667 19.157333-42.666667 42.666666a42.666667 42.666667 0 0 1-85.333333 0c0-70.570667 57.429333-128 128-128h42.666667z m-128-42.666666a42.666667 42.666667 0 0 1-85.333334 0c0-30.72-6.656-60.501333-19.2-87.722667A125.44 125.44 0 0 1 554.666667 341.333333a127.872 127.872 0 0 1-127.488-123.008 211.797333 211.797333 0 0 0-86.357334 0A127.872 127.872 0 0 1 213.333333 341.333333a125.44 125.44 0 0 1-23.466666-2.389333A209.152 209.152 0 0 0 170.666667 426.666667v298.666666h384a42.666667 42.666667 0 0 1 0 85.333334H128a42.666667 42.666667 0 0 1-42.666667-42.666667v-341.333333c0-46.037333 10.794667-90.538667 30.890667-130.944A126.72 126.72 0 0 1 85.333333 213.333333V170.666667c0-47.061333 38.272-85.333333 85.333334-85.333334h128a42.666667 42.666667 0 0 1 42.666666 42.666667v3.712a300.928 300.928 0 0 1 85.333334 0V128a42.666667 42.666667 0 0 1 42.666666-42.666667h128c47.061333 0 85.333333 38.272 85.333334 85.333334v42.666666a126.72 126.72 0 0 1-30.890667 82.389334c20.096 40.405333 30.890667 84.906667 30.890667 130.944z m-341.333334 170.666666a42.666667 42.666667 0 0 1 0-85.333333h85.333334a42.666667 42.666667 0 0 1 0 85.333333 42.666667 42.666667 0 0 1-85.333334 0z m170.666667-384c0 23.509333 19.157333 42.666667 42.666667 42.666667 23.509333 0 42.666667-19.157333 42.666666-42.666667V170.666667h-85.333333v42.666666zM256 213.333333V170.666667H170.666667v42.666666c0 23.509333 19.157333 42.666667 42.666666 42.666667 23.509333 0 42.666667-19.157333 42.666667-42.666667z" fill="#000000" p-id="2194"></path></svg>