<?xml version="1.0" standalone="no"?><!DOCTYPE svg PUBLIC "-//W3C//DTD SVG 1.1//EN" "http://www.w3.org/Graphics/SVG/1.1/DTD/svg11.dtd"><svg t="1670294764119" class="icon" viewBox="0 0 1024 1024" version="1.1" xmlns="http://www.w3.org/2000/svg" p-id="6080" xmlns:xlink="http://www.w3.org/1999/xlink" width="128" height="128"><path d="M782.122667 257.450667C869.546667 264.746667 938.666667 337.408 938.666667 426.666667v128c0 70.570667-57.429333 128-128 128 0 94.122667-76.544 170.666667-170.666667 170.666666-2.602667 0-5.034667-0.64-7.637333-0.768A127.701333 127.701333 0 0 1 512 938.666667a127.701333 127.701333 0 0 1-120.362667-86.101334C389.034667 852.693333 386.602667 853.333333 384 853.333333c-94.122667 0-170.666667-76.544-170.666667-170.666666-70.570667 0-128-57.429333-128-128v-128c0-89.258667 69.12-161.92 156.544-169.216C289.621333 155.946667 392.618667 85.333333 512 85.333333c119.381333 0 222.378667 70.613333 270.122667 172.117334zM853.333333 554.666667v-128a85.333333 85.333333 0 0 0-42.666666-73.856V597.333333c23.509333 0 42.666667-19.157333 42.666666-42.666666z m-128 128V384c0-117.632-95.701333-213.333333-213.333333-213.333333S298.666667 266.368 298.666667 384v298.666667c0 47.061333 38.272 85.333333 85.333333 85.333333s85.333333-38.272 85.333333-85.333333v-54.485334A85.077333 85.077333 0 0 1 512 469.333333a85.077333 85.077333 0 1 1 42.666667 158.848V682.666667c0 47.061333 38.272 85.333333 85.333333 85.333333s85.333333-38.272 85.333333-85.333333z m-213.333333 170.666666c17.493333 0 32.469333-10.624 39.082667-25.728a170.709333 170.709333 0 0 1-39.082667-33.237333c-11.349333 12.928-24.32 24.192-39.082667 33.237333 6.613333 15.104 21.589333 25.728 39.082667 25.728z m-341.333333-298.666666c0 23.509333 19.157333 42.666667 42.666666 42.666666V352.810667A85.333333 85.333333 0 0 0 170.666667 426.666667v128z m256-213.333334a42.666667 42.666667 0 1 1 0 85.333334 42.666667 42.666667 0 0 1 0-85.333334z m170.666666 0a42.666667 42.666667 0 1 1 0 85.333334 42.666667 42.666667 0 0 1 0-85.333334z" fill="#000000" p-id="6081"></path></svg>