<?xml version="1.0" standalone="no"?><!DOCTYPE svg PUBLIC "-//W3C//DTD SVG 1.1//EN" "http://www.w3.org/Graphics/SVG/1.1/DTD/svg11.dtd"><svg t="1669839382400" class="icon" viewBox="0 0 1024 1024" version="1.1" xmlns="http://www.w3.org/2000/svg" p-id="1018" xmlns:xlink="http://www.w3.org/1999/xlink" width="128" height="128"><path d="M0 0h1024v1024H0z" fill="#FF0000" fill-opacity="0" p-id="1019"></path><path d="M792.896 117.333333a156.437333 156.437333 0 0 1 156.437333 156.437334 32 32 0 0 1-64 0A92.437333 92.437333 0 0 0 792.896 181.333333H231.978667A93.312 93.312 0 0 0 138.666667 274.645333v496.042667a93.312 93.312 0 0 0 93.312 93.312h560.917333a92.437333 92.437333 0 0 0 92.437333-92.437333 32 32 0 1 1 64 0 156.437333 156.437333 0 0 1-156.437333 156.437333H231.978667A157.312 157.312 0 0 1 74.666667 770.688V274.645333A157.312 157.312 0 0 1 231.978667 117.333333h560.917333z" fill="#111111" p-id="1020"></path><path d="M456.682667 345.621333a32 32 0 1 1 48.256 42.026667l-117.333334 134.656 116.992 129.813333a32 32 0 0 1-0.042666 42.88l-2.304 2.325334a32 32 0 0 1-45.205334-2.346667l-135.936-150.890667a32 32 0 0 1-0.341333-42.453333l135.914667-156.010667z" fill="#111111" p-id="1021"></path><path d="M917.333333 488.106667a32 32 0 0 1 0 64H356.096a32 32 0 0 1 0-64H917.333333z" fill="#111111" p-id="1022"></path></svg>