<?xml version="1.0" standalone="no"?><!DOCTYPE svg PUBLIC "-//W3C//DTD SVG 1.1//EN" "http://www.w3.org/Graphics/SVG/1.1/DTD/svg11.dtd"><svg t="1670479157315" class="icon" viewBox="0 0 1024 1024" version="1.1" xmlns="http://www.w3.org/2000/svg" p-id="8850" xmlns:xlink="http://www.w3.org/1999/xlink" width="128" height="128"><path d="M960.28 609.44c-14.54-20.78-46.68-28.78-71.72-17.84l-172 70.96c-6.9-21.54-27.38-36.96-51.48-36.96h-151.8c-11.36 0-27.12-1.68-43.18-4.6-14.8-2.72-28.48-6.24-38.56-9.94l-0.88-0.34c-0.08-0.04-0.18-0.06-0.26-0.1-26.96-9.9-68.36-15.8-110.72-15.8h-66.84v-18.38c0-18.82-15.32-34.14-34.16-34.14H182.4v-16.18c0-5.52-4.48-10-10-10H65.72c-5.52 0-10 4.48-10 10v392.46c0 5.52 4.48 10 10 10H172.4c5.52 0 10-4.48 10-10v-21.12h36.28c18.84 0 34.16-15.32 34.16-34.14v-23.42l283.3 65.72c5.94 1.3 12.52 1.92 19.4 1.92 22 0 47.02-6.32 63.42-16.88l325.46-213.64c11.98-7.7 20.34-19.78 22.96-33.1 2.42-12.24-0.1-24.48-7.1-34.48zM162.4 908.58H75.72V536.12H162.4v372.46z m70.44-81.6c-0.02 0.06 0 0.14 0 0.22v36.12c0 7.8-6.36 14.14-14.16 14.14H182.4V562.3h36.28c7.8 0 14.16 6.34 14.16 14.14v250.54z m714.92-186.92c-1.58 8.02-6.74 15.36-14.24 20.2L608.06 873.88c-16.94 10.92-47.92 16.52-67.52 12.24l-287.7-66.76V614.82h66.84c40.06 0 78.82 5.42 103.72 14.54l0.88 0.34c0.08 0.04 0.16 0.06 0.24 0.1 11.12 4.08 26.02 7.94 41.98 10.88 17.48 3.18 34.08 4.92 46.78 4.92h151.8c18.18 0 33.1 13.78 33.94 31.36 0 0.1 0 0.2 0.02 0.28 0.02 0.42 0.04 0.86 0.04 1.28 0 2.1-0.22 4.2-0.64 6.3-3.1 15.42-17.12 26.6-33.36 26.6h-151.58c-4.34-0.18-44.92-1.02-78.64 28.1a10.028 10.028 0 0 0-1.04 14.12 10.034 10.034 0 0 0 7.58 3.46c2.32 0 4.64-0.8 6.52-2.44 28.66-24.74 64.48-23.26 64.8-23.26 0.18 0.02 0.36 0.02 0.56 0.02h151.8c25.72 0 48-17.94 52.96-42.62 0.38-1.84 0.64-3.68 0.82-5.56l177.44-73.2c0.06-0.02 0.14-0.06 0.2-0.08 16.48-7.24 38.18-2.22 47.4 10.96 3.84 5.48 5.22 12.28 3.86 19.14z" fill="#23130D" p-id="8851"></path><path d="M75.72 536.12H162.4v372.46H75.72z" fill="#3594BF" p-id="8852"></path><path d="M144.334 536.12H162.4v372.46h-18.066z" fill="#FFFFFF" opacity=".4" p-id="8853"></path><path d="M232.84 576.44v250.54c-0.02 0.06 0 0.14 0 0.22v36.12c0 7.8-6.36 14.14-14.16 14.14H182.4V562.3h36.28c7.8 0 14.16 6.34 14.16 14.14z" fill="#E1E1E5" p-id="8854"></path><path d="M182.4 562.3h20v315.16h-20z" fill="#23130D" opacity=".2" p-id="8855"></path><path d="M947.76 640.06c-1.58 8.02-6.74 15.36-14.24 20.2L608.06 873.88c-16.94 10.92-47.92 16.52-67.52 12.24l-287.7-66.76V614.82h66.84c40.06 0 78.82 5.42 103.72 14.54l0.88 0.34c0.08 0.04 0.16 0.06 0.24 0.1 11.12 4.08 26.02 7.94 41.98 10.88 17.48 3.18 34.08 4.92 46.78 4.92h151.8c18.18 0 33.1 13.78 33.94 31.36 0 0.1 0 0.2 0.02 0.28 0.02 0.42 0.04 0.86 0.04 1.28 0 2.1-0.22 4.2-0.64 6.3-3.1 15.42-17.12 26.6-33.36 26.6h-151.58c-4.34-0.18-44.92-1.02-78.64 28.1a10.028 10.028 0 0 0-1.04 14.12 10.034 10.034 0 0 0 7.58 3.46c2.32 0 4.64-0.8 6.52-2.44 28.66-24.74 64.48-23.26 64.8-23.26 0.18 0.02 0.36 0.02 0.56 0.02h151.8c25.72 0 48-17.94 52.96-42.62 0.38-1.84 0.64-3.68 0.82-5.56l177.44-73.2c0.06-0.02 0.14-0.06 0.2-0.08 16.48-7.24 38.18-2.22 47.4 10.96 3.84 5.48 5.22 12.28 3.86 19.14z" fill="#F8D3C9" p-id="8856"></path><path d="M947.76 640.06c-1.58 8.02-6.74 15.36-14.24 20.2L608.06 873.88c-16.94 10.92-47.92 16.52-67.52 12.24l-287.7-66.76v-37.88l287.7 66.76c19.6 4.28 50.58-1.32 67.52-12.24l325.46-213.62c2.52-1.62 4.78-3.54 6.72-5.66 1.36 1.26 2.6 2.68 3.66 4.2 3.84 5.48 5.22 12.28 3.86 19.14z" fill="#23130D" opacity=".2" p-id="8857"></path><path d="M498.358 169.764a10.002 10.002 0 0 0 12.816 5.978 9.996 9.996 0 0 0 5.976-12.816l-22.174-60.92a9.994 9.994 0 0 0-12.816-5.976 9.996 9.996 0 0 0-5.976 12.816l22.174 60.918zM335.172 236.094l56.15 32.43a9.992 9.992 0 0 0 13.66-3.658 9.998 9.998 0 0 0-3.658-13.66l-56.15-32.43a10 10 0 0 0-10.002 17.318zM759.792 269.868c1.698 0 3.416-0.432 4.992-1.342l56.146-32.43a10 10 0 0 0-10.004-17.32l-56.146 32.43a10 10 0 0 0 5.012 18.662zM307.188 424.378c0.576 0 1.162-0.05 1.748-0.154l63.866-11.262a10 10 0 1 0-3.472-19.696l-63.866 11.262a10 10 0 0 0 1.724 19.85zM780.054 401.378a10 10 0 0 0 8.112 11.584l63.856 11.262a10.004 10.004 0 0 0 3.472-19.696l-63.856-11.262a10.004 10.004 0 0 0-11.584 8.112zM649.802 175.744a10.004 10.004 0 0 0 12.818-5.976l22.18-60.918a10 10 0 0 0-18.792-6.842l-22.18 60.918a10.002 10.002 0 0 0 5.974 12.818zM763.3 343.3c7.14-6.94 9.86-15.16 7.46-22.52-2.38-7.34-9.42-12.4-19.26-13.82l-85.66-12.44c-9.14-1.34-21.2-10.1-25.28-18.38l-38.32-77.62c-4.4-8.92-11.36-14.06-19.1-14.06s-14.7 5.14-19.12 14.06l-38.3 77.62c-4.08 8.28-16.14 17.04-25.3 18.38l-85.64 12.44c-9.86 1.42-16.88 6.48-19.28 13.82-2.38 7.36 0.34 15.58 7.46 22.52l61.98 60.42c6.62 6.44 11.22 20.62 9.66 29.72l-14.62 85.32c-1.76 10.18 1.28 16.36 4.14 19.74 3.38 4.02 8.32 6.24 13.88 6.24 4.1 0 8.44-1.18 12.9-3.52l76.6-40.28c3.94-2.06 9.62-3.24 15.64-3.24 6 0 11.7 1.18 15.62 3.24l76.62 40.28c4.44 2.34 8.78 3.52 12.88 3.52 5.56 0 10.5-2.22 13.9-6.24 2.84-3.38 5.88-9.56 4.14-19.74l-14.64-85.3c-1.56-9.12 3.04-23.3 9.66-29.74l61.98-60.42z m-75.94 46.1c-11.3 11.02-18.08 31.86-15.4 47.44l14.62 85.3c0.16 0.94 0.22 1.7 0.22 2.3a13.54 13.54 0 0 1-2.12-0.92l-76.6-40.28c-6.82-3.58-15.66-5.54-24.94-5.54s-18.14 1.96-24.94 5.54l-76.62 40.28c-0.86 0.46-1.56 0.74-2.12 0.92 0-0.6 0.06-1.36 0.22-2.3l14.64-85.32c2.66-15.56-4.1-36.4-15.42-47.42l-61.98-60.42a12.8 12.8 0 0 1-1.52-1.72c0.56-0.18 1.3-0.38 2.26-0.5l85.64-12.46c15.64-2.26 33.36-15.14 40.36-29.32l38.3-77.6c0.42-0.86 0.82-1.52 1.18-2 0.34 0.48 0.74 1.14 1.18 2l38.3 77.6c6.98 14.18 24.7 27.04 40.34 29.32l85.66 12.46c0.94 0.12 1.7 0.32 2.26 0.5-0.36 0.48-0.86 1.06-1.54 1.72l-61.98 60.42z" fill="#23130D" p-id="8858"></path><path d="M750.88 327.26c-0.36 0.48-0.86 1.06-1.54 1.72l-57.22 55.78-4.76 4.64c-7.46 7.28-12.94 18.84-15.04 30.32-1.08 5.92-1.28 11.82-0.36 17.12l3.48 20.34 6.82 39.76 3.44 20.1 0.88 5.1c0.16 0.94 0.22 1.7 0.22 2.3a13.54 13.54 0 0 1-2.12-0.92l-74.58-39.22-2.02-1.06c-6.82-3.58-15.66-5.54-24.94-5.54s-18.14 1.96-24.94 5.54l-76.62 40.28c-0.86 0.46-1.56 0.74-2.12 0.92 0-0.6 0.06-1.36 0.22-2.3l14.64-85.32c2.66-15.56-4.1-36.4-15.42-47.42l-61.98-60.42a12.8 12.8 0 0 1-1.52-1.72c0.56-0.18 1.3-0.38 2.26-0.5l30.46-4.44 37.42-5.44 14.54-2.12 3.22-0.46c6.92-1 14.24-4.08 20.86-8.42 6.98-4.58 13.18-10.58 17.3-17.02 0.82-1.28 1.56-2.58 2.2-3.88l16.1-32.6 22.2-45c0.42-0.86 0.82-1.52 1.18-2 0.34 0.48 0.74 1.14 1.18 2l38.3 77.6c6.98 14.18 24.7 27.04 40.34 29.32l85.66 12.46c0.94 0.12 1.7 0.32 2.26 0.5z" fill="#F9C139" p-id="8859"></path><path d="M584.32 207.38l20.2 40.92-7.78 15.76-16.1 32.6c-0.64 1.3-1.38 2.6-2.2 3.88-4.12 6.44-10.32 12.44-17.3 17.02-6.62 4.34-13.94 7.42-20.86 8.42l-3.22 0.46-14.54 2.12-37.42 5.44-30.46 4.44c-0.96 0.12-1.7 0.32-2.26 0.5 0.34 0.48 0.84 1.06 1.52 1.72l61.98 60.42c11.32 11.02 18.08 31.86 15.42 47.42l-9.22 53.72-40.5 21.3c-0.86 0.46-1.56 0.74-2.12 0.92 0-0.6 0.06-1.36 0.22-2.3l14.64-85.32c2.66-15.56-4.1-36.4-15.42-47.42l-61.98-60.42a12.8 12.8 0 0 1-1.52-1.72c0.56-0.18 1.3-0.38 2.26-0.5l30.46-4.44 37.42-5.44 14.54-2.12 3.22-0.46c6.92-1 14.24-4.08 20.86-8.42 6.98-4.58 13.18-10.58 17.3-17.02 0.82-1.28 1.56-2.58 2.2-3.88l16.1-32.6 22.2-45c0.42-0.86 0.82-1.52 1.18-2 0.34 0.48 0.74 1.14 1.18 2z" fill="#23130D" opacity=".2" p-id="8860"></path><path d="M686.8 524.44a13.54 13.54 0 0 1-2.12-0.92l-74.58-39.22-161.98-161.98 37.42-5.44 200.16 200.16 0.88 5.1c0.16 0.94 0.22 1.7 0.22 2.3zM682.26 496.94l-182.18-182.18 3.22-0.46c6.92-1 14.24-4.08 20.86-8.42l151.28 151.3 6.82 39.76zM692.12 384.76l-4.76 4.64c-7.46 7.28-12.94 18.84-15.04 30.32l-130.86-130.86c0.82-1.28 1.56-2.58 2.2-3.88l16.1-32.6 132.36 132.38z" fill="#FFFFFF" opacity=".4" p-id="8861"></path></svg>