<?xml version="1.0" standalone="no"?><!DOCTYPE svg PUBLIC "-//W3C//DTD SVG 1.1//EN" "http://www.w3.org/Graphics/SVG/1.1/DTD/svg11.dtd"><svg t="1670089870534" class="icon" viewBox="0 0 1024 1024" version="1.1" xmlns="http://www.w3.org/2000/svg" p-id="1329" xmlns:xlink="http://www.w3.org/1999/xlink" width="128" height="128"><path d="M512 742.4m-76.8 0a76.8 76.8 0 1 0 153.6 0 76.8 76.8 0 1 0-153.6 0Z" fill="#000000" p-id="1330"></path><path d="M512 0c282.7776 0 512 229.2224 512 512s-229.2224 512-512 512S0 794.7776 0 512 229.2224 0 512 0z m0 76.8C271.6416 76.8 76.8 271.6416 76.8 512s194.8416 435.2 435.2 435.2 435.2-194.8416 435.2-435.2S752.3584 76.8 512 76.8z" fill="#000000" p-id="1331"></path><path d="M460.8 204.8m51.2 0l0 0q51.2 0 51.2 51.2l0 256q0 51.2-51.2 51.2l0 0q-51.2 0-51.2-51.2l0-256q0-51.2 51.2-51.2Z" fill="#000000" p-id="1332"></path></svg>