<?xml version="1.0" standalone="no"?><!DOCTYPE svg PUBLIC "-//W3C//DTD SVG 1.1//EN" "http://www.w3.org/Graphics/SVG/1.1/DTD/svg11.dtd"><svg t="1670264197233" class="icon" viewBox="0 0 1024 1024" version="1.1" xmlns="http://www.w3.org/2000/svg" p-id="1451" xmlns:xlink="http://www.w3.org/1999/xlink" width="128" height="128"><path d="M746.666667 810.666667h-469.333334c-35.285333 0-64-28.714667-64-64S242.048 682.666667 277.333333 682.666667h469.333334c35.285333 0 64 28.714667 64 64s-28.714667 64-64 64m-384-341.333334h298.666666c35.285333 0 64 28.714667 64 64s-28.714667 64-64 64h-298.666666c-35.285333 0-64-28.714667-64-64S327.381333 469.333333 362.666667 469.333333m187.434666-164.266666A127.786667 127.786667 0 0 1 632.106667 384h-112.213334a221.525333 221.525333 0 0 0 30.208-78.933333m241.450667 299.946666A148.053333 148.053333 0 0 0 810.666667 533.333333a149.418667 149.418667 0 0 0-88.277334-135.978666C707.925333 293.674667 619.562667 213.333333 512 213.333333a42.666667 42.666667 0 0 0-42.666667 42.666667c0 59.050667-27.904 128-106.666666 128C280.32 384 213.333333 450.986667 213.333333 533.333333c0 26.069333 7.338667 50.304 19.114667 71.68C172.117333 624.170667 128 680.064 128 746.666667 128 829.013333 194.986667 896 277.333333 896h469.333334c82.346667 0 149.333333-66.986667 149.333333-149.333333 0-66.602667-44.117333-122.496-104.448-141.653334" fill="#000000" p-id="1452"></path></svg>