<?xml version="1.0" standalone="no"?><!DOCTYPE svg PUBLIC "-//W3C//DTD SVG 1.1//EN" "http://www.w3.org/Graphics/SVG/1.1/DTD/svg11.dtd"><svg t="1670263117519" class="icon" viewBox="0 0 1024 1024" version="1.1" xmlns="http://www.w3.org/2000/svg" p-id="3511" xmlns:xlink="http://www.w3.org/1999/xlink" width="128" height="128"><path d="M883.498667 823.168a42.624 42.624 0 1 1-60.330667 60.330667l-144.896-144.853334A339.370667 339.370667 0 0 1 469.333333 810.666667c-188.202667 0-341.333333-153.130667-341.333333-341.333334s153.130667-341.333333 341.333333-341.333333 341.333333 153.130667 341.333334 341.333333a339.029333 339.029333 0 0 1-72.021334 208.938667l144.853334 144.896zM213.333333 469.333333c0 141.184 114.816 256 256 256s256-114.816 256-256-114.816-256-256-256-256 114.816-256 256z m256-85.333333a42.666667 42.666667 0 1 1 0-85.333333 42.666667 42.666667 0 0 1 0 85.333333z m128-42.666667a42.666667 42.666667 0 1 1 0 85.333334 42.666667 42.666667 0 0 1 0-85.333334zM384 384a42.666667 42.666667 0 1 1-85.333333 0 42.666667 42.666667 0 0 1 85.333333 0z m85.333333 42.666667c70.4 0 128 57.6 128 128 0 23.466667-19.2 42.666667-42.666666 42.666666H384c-23.466667 0-42.666667-19.2-42.666667-42.666666 0-70.4 57.6-128 128-128z" fill="#62C6AC" p-id="3512"></path></svg>