<?xml version="1.0" standalone="no"?><!DOCTYPE svg PUBLIC "-//W3C//DTD SVG 1.1//EN" "http://www.w3.org/Graphics/SVG/1.1/DTD/svg11.dtd"><svg t="1670183934811" class="icon" viewBox="0 0 1024 1024" version="1.1" xmlns="http://www.w3.org/2000/svg" p-id="5770" xmlns:xlink="http://www.w3.org/1999/xlink" width="128" height="128"><path d="M648.32 30.74c-159.18 0-288.68 129.5-288.68 288.68 0 69.72 24.84 133.74 66.12 183.68l-36.74 63.66a10.004 10.004 0 0 0 3.66 13.66l35.88 20.72-24.46 42.38-59.08-34.1c-0.08-0.06-0.16-0.08-0.24-0.12-0.34-0.18-0.7-0.32-1.04-0.46-0.26-0.12-0.52-0.22-0.8-0.32a7.64 7.64 0 0 0-1.02-0.22c-0.3-0.06-0.6-0.14-0.9-0.16-0.3-0.04-0.62-0.02-0.92-0.02-0.36 0-0.72-0.02-1.08 0.02-0.1 0.02-0.18 0-0.28 0.02l-44.5 5.74c1.66-7.04 1.56-14.42-0.36-21.6-3.08-11.44-10.42-21.02-20.68-26.94-6.74-3.88-14.4-5.94-22.16-5.94-15.82 0-30.56 8.5-38.46 22.18L92.94 788.84c-5.94 10.26-7.5 22.22-4.44 33.68s10.4 21.02 20.66 26.94a44.3 44.3 0 0 0 22.16 5.96c8 0 15.7-2.18 22.4-6.1 0.3 1.56 0.64 3.12 1.04 4.68 4.12 15.3 13.92 28.1 27.66 36.02l167.68 96.82 1.08 0.62c0.38 0.22 0.76 0.4 1.16 0.56 6.92 3.52 14.34 5.22 21.7 5.22 16.6 0 32.78-8.6 41.66-23.98a47.73 47.73 0 0 0 5.26-34.62c1.32 0.12 2.66 0.2 4 0.2 4.16 0 8.36-0.56 12.5-1.66 12.4-3.32 22.76-11.26 29.2-22.38 6.16-10.7 7.72-22.8 5.32-34.02 1.88 0.22 3.78 0.34 5.66 0.34 16.88 0 33.36-8.48 42.06-23.52 5.9-10.22 7.36-22.04 5.04-33.16 2.46 0.38 4.94 0.6 7.42 0.6 4.18 0 8.38-0.54 12.52-1.66 12.4-3.32 22.76-11.28 29.16-22.38 6.42-11.12 8.12-24.06 4.8-36.46a47.722 47.722 0 0 0-22.38-29.16L489.8 693l24.48-42.38 35.88 20.72a10 10 0 0 0 5 1.32c0.86 0 1.72-0.1 2.58-0.32a10.13 10.13 0 0 0 6.08-4.68l36.68-63.54c15.56 2.62 31.54 4 47.82 4 159.2 0 288.7-129.52 288.7-288.7S807.52 30.74 648.32 30.74zM160.68 809v0.02l-8.2 14.2c-4.36 7.52-12.46 12.2-21.16 12.2-4.24 0-8.44-1.14-12.16-3.28a24.164 24.164 0 0 1-11.34-14.8c-1.68-6.28-0.82-12.86 2.44-18.5l119.64-207.24c4.34-7.52 12.44-12.18 21.14-12.18 4.26 0 8.44 1.12 12.16 3.26 5.64 3.26 9.66 8.52 11.36 14.82 1.68 6.28 0.82 12.84-2.44 18.48L160.68 809z m385.58-60.3c6.5 3.74 11.14 9.78 13.08 17.02 1.92 7.24 0.94 14.8-2.82 21.28a27.838 27.838 0 0 1-17.02 13.06c-7.24 1.94-14.8 0.94-21.28-2.8l-44.8-25.86a9.976 9.976 0 0 0-13.66 3.66 9.968 9.968 0 0 0 3.66 13.66l27.62 15.94c9.44 5.46 14.84 15.56 14.84 25.62 0 4.6-1.12 9.18-3.5 13.32-7.6 13.16-25.64 17.58-39.38 9.64l-37.32-21.58a10.004 10.004 0 0 0-13.66 3.66c-2.76 4.78-1.14 10.9 3.64 13.66l23.32 13.48c0.02 0 0.04 0.02 0.06 0.04 13.38 7.72 18 24.92 10.3 38.3a27.972 27.972 0 0 1-17.06 13.06c-7.22 1.94-14.78 0.94-21.26-2.82l-37.34-21.56a10 10 0 0 0-13.66 3.66 9.968 9.968 0 0 0 3.66 13.66l24.42 14.12h0.02c6.5 3.76 11.14 9.8 13.06 17.04 1.94 7.24 0.94 14.8-2.8 21.3-7.72 13.38-24.9 17.96-38.3 10.24l-167.66-96.8c-9.1-5.26-15.62-13.74-18.34-23.88-2.72-10.14-1.32-20.72 3.92-29.82l106.02-183.62 53.92-6.96 208.32 120.28z m-73.78-65.7l-51.06-29.48 24.46-42.38 51.08 29.48-24.48 42.38z m79.02-34l-35.56-20.52s-0.02 0-0.02-0.02c-0.02 0-0.04 0-0.04-0.02l-68.4-39.48c-0.02 0-0.02-0.02-0.04-0.02-0.02-0.02-0.04-0.02-0.06-0.04l-36.04-20.8 28.44-49.26c37.44 39.14 85.78 67.78 140.06 81.04l-28.34 49.12z m96.82-60.88c-148.14 0-268.68-120.54-268.68-268.7S500.18 50.74 648.32 50.74c148.16 0 268.7 120.52 268.7 268.68s-120.54 268.7-268.7 268.7z" fill="#23130D" p-id="5771"></path><path d="M496.96 640.62l-24.48 42.38-51.06-29.48 24.46-42.38z" fill="#CC7B5A" p-id="5772"></path><path d="M496.96 640.62l-5.54 9.58-40.54-23.4-18.94 32.8-10.52-6.08 24.46-42.38z" opacity=".2" p-id="5773"></path><path d="M648.32 50.74c-148.14 0-268.68 120.52-268.68 268.68s120.54 268.7 268.68 268.7c148.16 0 268.7-120.54 268.7-268.7S796.48 50.74 648.32 50.74z m0 490.6c-122.36 0-221.92-99.54-221.92-221.92S525.96 97.5 648.32 97.5c122.38 0 221.94 99.54 221.94 221.92s-99.56 221.92-221.94 221.92z" fill="#F9C139" p-id="5774"></path><path d="M648.32 58.74c143.75 0 260.7 116.94 260.7 260.68 0 143.75-116.95 260.7-260.7 260.7-143.74 0-260.68-116.95-260.68-260.7 0-143.74 116.94-260.68 260.68-260.68m0 490.6c126.79 0 229.94-103.142 229.94-229.92S775.11 89.5 648.32 89.5c-126.778 0-229.92 103.142-229.92 229.92s103.142 229.92 229.92 229.92m0-498.6c-148.14 0-268.68 120.52-268.68 268.68 0 148.16 120.54 268.7 268.68 268.7 148.16 0 268.7-120.54 268.7-268.7 0-148.16-120.54-268.68-268.7-268.68z m0 490.6c-122.36 0-221.92-99.54-221.92-221.92S525.96 97.5 648.32 97.5c122.38 0 221.94 99.54 221.94 221.92s-99.56 221.92-221.94 221.92z" opacity=".2" p-id="5775"></path><path d="M579.84 599.88l-28.34 49.12-35.56-20.52s-0.02 0-0.02-0.02c-0.02 0-0.04 0-0.04-0.02l-68.4-39.48c-0.02 0-0.02-0.02-0.04-0.02-0.02-0.02-0.04-0.02-0.06-0.04l-36.04-20.8 28.44-49.26c37.44 39.14 85.78 67.78 140.06 81.04z" fill="#E59D89" p-id="5776"></path><path d="M579.84 599.88l-9.58 16.6c-54.18-13.28-102.44-41.9-139.82-80.98l-18.9 32.72-0.2-0.12 28.44-49.26c37.44 39.14 85.78 67.78 140.06 81.04z" opacity=".2" p-id="5777"></path><path d="M272.12 615.98L160.68 809v0.02l-8.2 14.2c-4.36 7.52-12.46 12.2-21.16 12.2-4.24 0-8.44-1.14-12.16-3.28a24.164 24.164 0 0 1-11.34-14.8c-1.68-6.28-0.82-12.86 2.44-18.5l119.64-207.24c4.34-7.52 12.44-12.18 21.14-12.18 4.26 0 8.44 1.12 12.16 3.26 5.64 3.26 9.66 8.52 11.36 14.82 1.68 6.28 0.82 12.84-2.44 18.48z" fill="#3594BF" p-id="5778"></path><path d="M274.78 598.46c-3.6-2-7.64-3.04-11.74-3.04-8.7 0-16.8 4.66-21.14 12.18L122.26 814.84a24.144 24.144 0 0 0-2.66 17.54c-0.16-0.08-0.3-0.16-0.44-0.24a24.164 24.164 0 0 1-11.34-14.8c-1.68-6.28-0.82-12.86 2.44-18.5l119.64-207.24c4.34-7.52 12.44-12.18 21.14-12.18 4.26 0 8.44 1.12 12.16 3.26 5.64 3.26 9.66 8.52 11.36 14.82 0.08 0.32 0.16 0.64 0.22 0.96z" opacity=".2" p-id="5779"></path><path d="M556.52 787a27.838 27.838 0 0 1-17.02 13.06c-7.24 1.94-14.8 0.94-21.28-2.8l-44.8-25.86a9.976 9.976 0 0 0-13.66 3.66 9.968 9.968 0 0 0 3.66 13.66l27.62 15.94c9.44 5.46 14.84 15.56 14.84 25.62 0 4.6-1.12 9.18-3.5 13.32-7.6 13.16-25.64 17.58-39.38 9.64l-37.32-21.58a10.004 10.004 0 0 0-13.66 3.66c-2.76 4.78-1.14 10.9 3.64 13.66l23.32 13.48c0.02 0 0.04 0.02 0.06 0.04 13.38 7.72 18 24.92 10.3 38.3a27.972 27.972 0 0 1-17.06 13.06c-7.22 1.94-14.78 0.94-21.26-2.82l-37.34-21.56a10 10 0 0 0-13.66 3.66 9.968 9.968 0 0 0 3.66 13.66l24.42 14.12h0.02c6.5 3.76 11.14 9.8 13.06 17.04 1.94 7.24 0.94 14.8-2.8 21.3-7.72 13.38-24.9 17.96-38.3 10.24l-167.66-96.8c-9.1-5.26-15.62-13.74-18.34-23.88-2.72-10.14-1.32-20.72 3.92-29.82l106.02-183.62 53.92-6.96 208.32 120.28c6.5 3.74 11.14 9.78 13.08 17.02 1.92 7.24 0.94 14.8-2.82 21.28z" fill="#F8D3C9" p-id="5780"></path><path d="M394.02 964.96c-8.72 8.82-22.68 11.04-33.94 4.54l-167.66-96.8c-9.1-5.26-15.62-13.74-18.34-23.88-2.72-10.14-1.32-20.72 3.92-29.82l106.02-183.62 29.76-3.84-104.78 181.46c-5.24 9.1-6.64 19.68-3.92 29.82 2.72 10.14 9.24 18.62 18.34 23.88l167.66 96.8c0.96 0.56 1.94 1.04 2.94 1.46z" opacity=".2" p-id="5781"></path><path d="M648.32 97.5c-122.36 0-221.92 99.54-221.92 221.92s99.56 221.92 221.92 221.92c122.38 0 221.94-99.54 221.94-221.92S770.7 97.5 648.32 97.5z m0 423.84c-111.34 0-201.92-90.58-201.92-201.92 0-111.34 90.58-201.92 201.92-201.92 111.34 0 201.94 90.58 201.94 201.92 0 111.34-90.6 201.92-201.94 201.92z" fill="#23130D" p-id="5782"></path><path d="M850.26 319.42c0 22.16-3.58 43.48-10.24 63.44A200.5 200.5 0 0 1 816 431.84a203.86 203.86 0 0 1-20.28 25.44 201.8 201.8 0 0 1-22.9 21.02 196.992 196.992 0 0 1-12.88 9.32c-11.7 7.78-24.24 14.4-37.48 19.64-22.96 9.08-47.98 14.08-74.14 14.08-111.34 0-201.92-90.58-201.92-201.92 0-26.16 5-51.18 14.08-74.14 5.26-13.24 11.86-25.78 19.64-37.48 2.94-4.42 6.06-8.7 9.34-12.86a199.98 199.98 0 0 1 21-22.92c7.9-7.42 16.42-14.2 25.44-20.28 15.02-10.08 31.46-18.22 48.98-24.02 19.96-6.64 41.28-10.22 63.44-10.22 111.34 0 201.94 90.58 201.94 201.92z" fill="#E1E1E5" p-id="5783"></path><path d="M759.94 487.62c-11.7 7.78-24.24 14.4-37.48 19.64L460.48 245.28c5.26-13.24 11.86-25.78 19.64-37.48l279.82 279.82zM795.72 457.28a201.8 201.8 0 0 1-22.9 21.02L489.46 194.94a199.98 199.98 0 0 1 21-22.92l285.26 285.26zM840.02 382.86A200.5 200.5 0 0 1 816 431.84L535.9 151.74c15.02-10.08 31.46-18.22 48.98-24.02l255.14 255.14z" fill="#FFFFFF" opacity=".4" p-id="5784"></path></svg>