<?xml version="1.0" standalone="no"?><!DOCTYPE svg PUBLIC "-//W3C//DTD SVG 1.1//EN" "http://www.w3.org/Graphics/SVG/1.1/DTD/svg11.dtd"><svg t="1670261154754" class="icon" viewBox="0 0 1024 1024" version="1.1" xmlns="http://www.w3.org/2000/svg" p-id="1429" data-spm-anchor-id="a313x.7781069.0.i0" xmlns:xlink="http://www.w3.org/1999/xlink" width="128" height="128"><path d="M946.023 441.727 750.557 632.351l46.309 269.239c0.536 3.769 0.536 6.996 0.536 10.765 0 14.541-6.459 26.924-22.074 26.924-7.539 0-15.077-2.689-21.543-6.46L512.011 805.741 270.238 932.818c-7.002 3.771-14.005 6.46-21.543 6.46-15.616 0-22.611-12.919-22.611-26.924 0-3.769 0.536-6.996 1.072-10.765l46.308-269.239L77.462 441.727C71.003 434.731 64 425.576 64 415.884c0-16.151 16.695-22.617 30.155-24.77l270.314-39.312 121.155-245c4.849-10.235 14.004-22.081 26.387-22.081 12.381 0 21.538 11.846 26.386 22.081l121.155 245 270.313 39.312c12.925 2.153 30.155 8.619 30.155 24.77C960.021 425.576 953.019 434.731 946.023 441.727zM841.02 448.193 613.78 414.804 512.011 209.11 410.24 414.804l-227.239 33.389 164.774 159.923L308.47 834.817l203.541-107.156 203.004 107.156-38.769-226.701L841.02 448.193z" p-id="1430" fill="#d81e06"></path></svg>