<?xml version="1.0" standalone="no"?><!DOCTYPE svg PUBLIC "-//W3C//DTD SVG 1.1//EN" "http://www.w3.org/Graphics/SVG/1.1/DTD/svg11.dtd"><svg t="1669969268396" class="icon" viewBox="0 0 1024 1024" version="1.1" xmlns="http://www.w3.org/2000/svg" p-id="1653" xmlns:xlink="http://www.w3.org/1999/xlink" width="128" height="128"><path d="M51.2 153.6m38.4 0l844.8 0q38.4 0 38.4 38.4l0 0q0 38.4-38.4 38.4l-844.8 0q-38.4 0-38.4-38.4l0 0q0-38.4 38.4-38.4Z" fill="#000000" p-id="1654"></path><path d="M332.8 25.6m38.4 0l281.6 0q38.4 0 38.4 38.4l0 0q0 38.4-38.4 38.4l-281.6 0q-38.4 0-38.4-38.4l0 0q0-38.4 38.4-38.4Z" fill="#000000" p-id="1655"></path><path d="M460.8 345.6m0 38.4l0 384q0 38.4-38.4 38.4l0 0q-38.4 0-38.4-38.4l0-384q0-38.4 38.4-38.4l0 0q38.4 0 38.4 38.4Z" fill="#000000" p-id="1656"></path><path d="M640 345.6m0 38.4l0 384q0 38.4-38.4 38.4l0 0q-38.4 0-38.4-38.4l0-384q0-38.4 38.4-38.4l0 0q38.4 0 38.4 38.4Z" fill="#000000" p-id="1657"></path><path d="M870.4 153.6v768a102.4 102.4 0 0 1-102.4 102.4H256a102.4 102.4 0 0 1-102.4-102.4V153.6h716.8z m-76.8 76.8H230.4v691.2a25.6 25.6 0 0 0 22.6048 25.4208L256 947.2h512a25.6 25.6 0 0 0 25.4208-22.6048L793.6 921.6V230.4z" fill="#000000" p-id="1658"></path></svg>