<?xml version="1.0" standalone="no"?><!DOCTYPE svg PUBLIC "-//W3C//DTD SVG 1.1//EN" "http://www.w3.org/Graphics/SVG/1.1/DTD/svg11.dtd"><svg t="1670183282428" class="icon" viewBox="0 0 1024 1024" version="1.1" xmlns="http://www.w3.org/2000/svg" p-id="3001" xmlns:xlink="http://www.w3.org/1999/xlink" width="128" height="128"><path d="M130.9184 319.3856h145.1008v387.328H130.9184z" fill="#dbdbdb" p-id="3002" data-spm-anchor-id="a313x.7781069.0.i22" class=""></path><path d="M276.0192 739.072c-22.6304 0-40.96-18.3296-40.96-40.96V319.3856c0-22.6304 18.3296-40.96 40.96-40.96s40.96 18.3296 40.96 40.96v378.7264c0 22.6304-18.3296 40.96-40.96 40.96z" fill="#8a8a8a" p-id="3003" data-spm-anchor-id="a313x.7781069.0.i23" class="selected"></path><path d="M710.144 684.8512l-50.688-64.3584c31.8464-25.088 50.1248-62.72 50.1248-103.2192 0-40.3456-18.1248-77.8752-49.8176-102.9632l50.8928-64.2048c51.3536 40.7552 80.7936 101.632 80.7936 167.1168 0.0512 65.792-29.5936 126.8736-81.3056 167.6288z" fill="#34333A" p-id="3004"></path><path d="M809.8816 833.3824l-51.712-63.5392c76.3904-62.208 120.1664-154.2656 120.1664-252.6208 0-99.072-44.3392-191.5904-121.6512-253.7984l51.3536-63.7952c96.7168 77.824 152.2176 193.6384 152.2176 317.6448 0 123.0848-54.8352 238.2848-150.3744 316.1088zM546.0992 917.6576c-12.4928 0-24.9856-3.4304-36.2496-10.2912l-244.1728-148.8384h-111.616c-48.5376 0-88.0128-40.6528-88.0128-90.624V349.5936c0-49.9712 39.4752-90.624 88.0128-90.624h111.616l244.1728-148.7872c21.8112-13.312 48.128-13.7728 70.3488-1.28 22.6816 12.7488 36.7616 37.12 36.7616 63.5904v672.5632c0 26.4704-14.08 50.8416-36.7616 63.5904a69.07904 69.07904 0 0 1-34.0992 9.0112zM154.0608 340.8896c-2.8672 0-6.0928 3.584-6.0928 8.704v318.3616c0 5.12 3.2256 8.704 6.0928 8.704h123.0848c7.5264 0 14.8992 2.048 21.2992 5.9904l236.5952 144.1792V190.72L298.496 334.8992a41.04192 41.04192 0 0 1-21.2992 5.9904H154.0608z m398.4384-160.768z" fill="#34333A" p-id="3005"></path></svg>